<svg id="Capa_1" data-name="Capa 1" xmlns="http://www.w3.org/2000/svg" xmlns:xlink="http://www.w3.org/1999/xlink" viewBox="0 0 173.95 173.95"><defs><style>.cls-1{fill:url(#linear-gradient);}.cls-2{fill:url(#linear-gradient-2);}.cls-3{fill:url(#Degradado_sin_nombre_42);}.cls-4{fill:url(#Degradado_sin_nombre_30);}</style><linearGradient id="linear-gradient" x1="28.12" y1="86.98" x2="145.86" y2="86.98" gradientUnits="userSpaceOnUse"><stop offset="0" stop-color="#aaaaa9"/><stop offset="0.02" stop-color="#afafae"/><stop offset="0.15" stop-color="#cdcccc"/><stop offset="0.23" stop-color="#d8d7d7"/><stop offset="0.43" stop-color="#aaaaa9"/><stop offset="0.46" stop-color="#afafae"/><stop offset="0.59" stop-color="#cdcccc"/><stop offset="0.67" stop-color="#d8d7d7"/><stop offset="0.82" stop-color="#aaaaa9"/><stop offset="0.83" stop-color="#afafae"/><stop offset="0.9" stop-color="#cdcccc"/><stop offset="0.95" stop-color="#d8d7d7"/><stop offset="1" stop-color="#b4b3b4"/></linearGradient><linearGradient id="linear-gradient-2" x1="0.01" y1="86.98" x2="173.97" y2="86.98" xlink:href="#linear-gradient"/><radialGradient id="Degradado_sin_nombre_42" cx="86.99" cy="86.98" r="76.91" gradientUnits="userSpaceOnUse"><stop offset="0.83" stop-color="#666565"/><stop offset="0.84" stop-color="#5d5c5c"/><stop offset="0.91" stop-color="#2f2c2f"/><stop offset="0.97" stop-color="#120e13"/><stop offset="1" stop-color="#070308"/></radialGradient><radialGradient id="Degradado_sin_nombre_30" cx="86.99" cy="86.98" r="58.87" gradientUnits="userSpaceOnUse"><stop offset="0.55" stop-color="#070308"/><stop offset="1" stop-color="#565656"/></radialGradient></defs><title>Abajo</title><path class="cls-1" d="M87,28.11A58.87,58.87,0,1,0,145.86,87,58.94,58.94,0,0,0,87,28.11Zm33.26,47.35L91.77,124.8a5.51,5.51,0,0,1-9.54,0L53.75,75.46a5.51,5.51,0,0,1,4.77-8.26h57A5.51,5.51,0,0,1,120.25,75.46Z"/><path class="cls-2" d="M87,0a87,87,0,1,0,87,87A87.08,87.08,0,0,0,87,0Zm0,150.87A63.9,63.9,0,1,1,150.89,87,64,64,0,0,1,87,150.87Z"/><path class="cls-3" d="M87,10.07A76.91,76.91,0,1,0,163.9,87,76.91,76.91,0,0,0,87,10.07Zm0,140.8A63.9,63.9,0,1,1,150.88,87,64,64,0,0,1,87,150.87Z"/><path class="cls-4" d="M87,28.11A58.87,58.87,0,1,0,145.85,87,58.94,58.94,0,0,0,87,28.11Zm33.25,47.36L91.76,124.8a5.52,5.52,0,0,1-9.55,0L53.73,75.47A5.51,5.51,0,0,1,58.5,67.2h57A5.51,5.51,0,0,1,120.24,75.47Z"/></svg>