<svg id="Capa_1" data-name="Capa 1" xmlns="http://www.w3.org/2000/svg" xmlns:xlink="http://www.w3.org/1999/xlink" viewBox="0 0 173.95 173.95"><defs><style>.cls-1{fill:url(#linear-gradient);}.cls-2{fill:url(#linear-gradient-2);}.cls-3{fill:url(#Degradado_sin_nombre_42);}.cls-4{fill:url(#Degradado_sin_nombre_30);}</style><linearGradient id="linear-gradient" x1="28.11" y1="86.98" x2="145.84" y2="86.98" gradientTransform="matrix(1, 0, 0, -1, 0, 173.95)" gradientUnits="userSpaceOnUse"><stop offset="0" stop-color="#aaaaa9"/><stop offset="0.02" stop-color="#afafae"/><stop offset="0.15" stop-color="#cdcccc"/><stop offset="0.23" stop-color="#d8d7d7"/><stop offset="0.43" stop-color="#aaaaa9"/><stop offset="0.46" stop-color="#afafae"/><stop offset="0.59" stop-color="#cdcccc"/><stop offset="0.67" stop-color="#d8d7d7"/><stop offset="0.82" stop-color="#aaaaa9"/><stop offset="0.83" stop-color="#afafae"/><stop offset="0.9" stop-color="#cdcccc"/><stop offset="0.95" stop-color="#d8d7d7"/><stop offset="1" stop-color="#b4b3b4"/></linearGradient><linearGradient id="linear-gradient-2" x1="0" y1="86.98" x2="173.95" y2="86.98" xlink:href="#linear-gradient"/><radialGradient id="Degradado_sin_nombre_42" cx="86.97" cy="86.98" r="76.91" gradientTransform="matrix(1, 0, 0, -1, 0, 173.95)" gradientUnits="userSpaceOnUse"><stop offset="0.83" stop-color="#666565"/><stop offset="0.84" stop-color="#5d5c5c"/><stop offset="0.91" stop-color="#2f2c2f"/><stop offset="0.97" stop-color="#120e13"/><stop offset="1" stop-color="#070308"/></radialGradient><radialGradient id="Degradado_sin_nombre_30" cx="86.97" cy="86.98" r="58.87" gradientTransform="matrix(1, 0, 0, -1, 0, 173.95)" gradientUnits="userSpaceOnUse"><stop offset="0.55" stop-color="#070308"/><stop offset="1" stop-color="#565656"/></radialGradient></defs><title>Arriba</title><path class="cls-1" d="M87,145.84A58.87,58.87,0,1,1,145.84,87,58.93,58.93,0,0,1,87,145.84Zm33.26-47.35L91.76,49.15a5.52,5.52,0,0,0-9.55,0L53.73,98.49a5.51,5.51,0,0,0,4.77,8.26h57A5.51,5.51,0,0,0,120.24,98.49Z"/><path class="cls-2" d="M87,174a87,87,0,1,1,87-87A87.08,87.08,0,0,1,87,174ZM87,23.08A63.9,63.9,0,1,0,150.88,87,64,64,0,0,0,87,23.08Z"/><path class="cls-3" d="M87,163.89A76.91,76.91,0,1,1,163.88,87,76.92,76.92,0,0,1,87,163.89ZM87,23.08A63.9,63.9,0,1,0,150.87,87,64,64,0,0,0,87,23.08Z"/><path class="cls-4" d="M87,145.84A58.87,58.87,0,1,1,145.84,87,58.93,58.93,0,0,1,87,145.84Zm33.25-47.35L91.74,49.15a5.51,5.51,0,0,0-9.54,0L53.72,98.49a5.51,5.51,0,0,0,4.77,8.26h57A5.51,5.51,0,0,0,120.22,98.49Z"/></svg>