<?xml version="1.0"?>
<svg xmlns="http://www.w3.org/2000/svg" xmlns:xlink="http://www.w3.org/1999/xlink" xmlns:svgjs="http://svgjs.com/svgjs" version="1.1" width="512" height="512" x="0" y="0" viewBox="0 0 64 64" style="enable-background:new 0 0 512 512" xml:space="preserve" class=""><g><path xmlns="http://www.w3.org/2000/svg" d="m62.089 41.667-1.886.666c.529 1.495.797 3.065.797 4.667 0 3.804-1.53 7.254-4 9.779v-3.779c0-3.401-2.44-6.241-5.66-6.868 1.026-1.077 1.66-2.53 1.66-4.132v-2c0-3.309-2.691-6-6-6s-6 2.691-6 6v2c0 1.602.634 3.055 1.66 4.132-3.22.627-5.66 3.467-5.66 6.868v3.779c-2.47-2.526-4-5.976-4-9.779 0-7.72 6.28-14 14-14 1.947 0 3.831.392 5.6 1.164l.801-1.832c-2.023-.884-4.176-1.332-6.401-1.332-6.882 0-12.746 4.376-15 10.485-2.254-6.109-8.118-10.485-15-10.485-1.982 0-3.919.359-5.756 1.067l.72 1.865c1.606-.619 3.301-.932 5.036-.932 7.72 0 14 6.28 14 14 0 3.804-1.53 7.254-4 9.779v-3.779c0-3.401-2.44-6.241-5.66-6.868 1.026-1.077 1.66-2.53 1.66-4.132v-2c0-3.309-2.691-6-6-6s-6 2.691-6 6v2c0 1.602.634 3.055 1.66 4.132-3.22.627-5.66 3.467-5.66 6.868v3.779c-2.47-2.525-4-5.975-4-9.779 0-1.947.392-3.832 1.165-5.6l-1.833-.8c-.884 2.022-1.332 4.175-1.332 6.4 0 8.822 7.178 16 16 16 6.882 0 12.746-4.376 15-10.485 2.254 6.109 8.118 10.485 15 10.485 8.822 0 16-7.178 16-16 0-1.83-.307-3.624-.911-5.333zm-43.089 6.333c0 1.103-.897 2-2 2s-2-.897-2-2zm-6-8c0-2.206 1.794-4 4-4s4 1.794 4 4v2c0 2.206-1.794 4-4 4s-4-1.794-4-4zm-4 13c0-2.418 1.726-4.439 4.01-4.9.055 2.159 1.819 3.9 3.99 3.9s3.935-1.741 3.99-3.9c2.284.461 4.01 2.482 4.01 4.9v3h-2v-4h-2v4h-8v-4h-2v4h-2zm-.632 5h17.264c-2.381 1.872-5.375 3-8.632 3s-6.251-1.128-8.632-3zm40.632-10c0 1.103-.897 2-2 2s-2-.897-2-2zm-6-8c0-2.206 1.794-4 4-4s4 1.794 4 4v2c0 2.206-1.794 4-4 4s-4-1.794-4-4zm-4 13c0-2.418 1.726-4.439 4.01-4.9.055 2.159 1.819 3.9 3.99 3.9s3.935-1.741 3.99-3.9c2.284.461 4.01 2.482 4.01 4.9v3h-2v-4h-2v4h-8v-4h-2v4h-2zm-.632 5h17.264c-2.381 1.872-5.375 3-8.632 3s-6.251-1.128-8.632-3z" fill="#ffffff" data-original="#000000" style="" class=""/><path xmlns="http://www.w3.org/2000/svg" d="m32 33c8.822 0 16-7.178 16-16 0-1.83-.307-3.624-.911-5.333l-1.886.666c.529 1.495.797 3.065.797 4.667 0 3.804-1.53 7.254-4 9.779v-3.779c0-3.401-2.44-6.241-5.66-6.868 1.026-1.077 1.66-2.53 1.66-4.132v-2c0-3.309-2.691-6-6-6s-6 2.691-6 6v2c0 1.602.634 3.055 1.66 4.132-3.22.627-5.66 3.467-5.66 6.868v3.779c-2.47-2.526-4-5.976-4-9.779 0-7.72 6.28-14 14-14 1.947 0 3.831.392 5.6 1.164l.8-1.832c-2.022-.884-4.175-1.332-6.4-1.332-8.822 0-16 7.178-16 16s7.178 16 16 16zm-8.632-5h17.264c-2.381 1.872-5.375 3-8.632 3s-6.251-1.128-8.632-3zm10.632-10c0 1.103-.897 2-2 2s-2-.897-2-2zm-6-8c0-2.206 1.794-4 4-4s4 1.794 4 4v2c0 2.206-1.794 4-4 4s-4-1.794-4-4zm-4 13c0-2.418 1.726-4.439 4.01-4.9.055 2.159 1.819 3.9 3.99 3.9s3.935-1.741 3.99-3.9c2.284.461 4.01 2.482 4.01 4.9v3h-2v-4h-2v4h-8v-4h-2v4h-2z" fill="#ffffff" data-original="#000000" style="" class=""/><path xmlns="http://www.w3.org/2000/svg" d="m42 8h2v2h2v-7c0-.553-.448-1-1-1h-4c-.552 0-1 .447-1 1v7h2zm2-4v2h-2v-2z" fill="#ffffff" data-original="#000000" style="" class=""/><path xmlns="http://www.w3.org/2000/svg" d="m56 40h4v-2h-3v-4h3v-2h-4c-.552 0-1 .447-1 1v6c0 .553.448 1 1 1z" fill="#ffffff" data-original="#000000" style="" class=""/><path xmlns="http://www.w3.org/2000/svg" d="m5 40h2.5c1.378 0 2.5-1.121 2.5-2.5 0-.565-.195-1.081-.513-1.5.318-.419.513-.935.513-1.5 0-1.379-1.122-2.5-2.5-2.5h-2.5c-.552 0-1 .447-1 1v3 3c0 .553.448 1 1 1zm2.5-2h-1.5v-1h1.5c.276 0 .5.225.5.5s-.224.5-.5.5zm-1.5-4h1.5c.276 0 .5.225.5.5s-.224.5-.5.5h-1.5z" fill="#ffffff" data-original="#000000" style="" class=""/></g></svg>
